HIERARCHY
ROOT joint_0
{
	OFFSET 0.000000 0.000000 0.000000
	CHANNELS 6 Xposition Yposition Zposition Zrotation Yrotation Xrotation 
	JOINT joint_1
	{
		OFFSET 6.590088 -1.122192 114.019043
		CHANNELS 3 Zrotation Yrotation Xrotation
		JOINT joint_2
		{
			OFFSET -5.956055 -0.820435 104.151001
			CHANNELS 3 Zrotation Yrotation Xrotation
			JOINT joint_3
			{
				OFFSET -7.343506 -1.103027 103.942993
				CHANNELS 3 Zrotation Yrotation Xrotation
				JOINT joint_4
				{
					OFFSET 3.109131 -2.857056 147.715942
					CHANNELS 3 Zrotation Yrotation Xrotation
					JOINT joint_5
					{
						OFFSET 28.592285 -2.852295 87.703979
						CHANNELS 3 Zrotation Yrotation Xrotation
						End Site
						{
							OFFSET 0.000000 0.000000 0.000000
						}
					}
				}
				JOINT joint_6
				{
					OFFSET -0.332520 -33.687378 82.401978
					CHANNELS 3 Zrotation Yrotation Xrotation
					JOINT joint_7
					{
						OFFSET -7.397461 -168.719177 -22.750977
						CHANNELS 3 Zrotation Yrotation Xrotation
						JOINT joint_8
						{
							OFFSET 17.065918 -24.903137 -272.721069
							CHANNELS 3 Zrotation Yrotation Xrotation
							JOINT joint_9
							{
								OFFSET 33.311279 -37.031616 -278.192993
								CHANNELS 3 Zrotation Yrotation Xrotation
								End Site
								{
									OFFSET 0.000000 0.000000 0.000000
								}
							}
						}
					}
				}
				JOINT joint_10
				{
					OFFSET 3.914307 30.461670 83.552979
					CHANNELS 3 Zrotation Yrotation Xrotation
					JOINT joint_11
					{
						OFFSET 15.543701 166.845459 -30.963013
						CHANNELS 3 Zrotation Yrotation Xrotation
						JOINT joint_12
						{
							OFFSET 35.734863 35.017700 -269.786011
							CHANNELS 3 Zrotation Yrotation Xrotation
							JOINT joint_13
							{
								OFFSET 70.506592 13.977783 -273.320007
								CHANNELS 3 Zrotation Yrotation Xrotation
								End Site
								{
									OFFSET 0.000000 0.000000 0.000000
								}
							}
						}
					}
				}
			}
		}
	}
	JOINT joint_14
	{
		OFFSET -0.314697 -95.093994 -116.004028
		CHANNELS 3 Zrotation Yrotation Xrotation
		JOINT joint_15
		{
			OFFSET -22.490723 2.017883 -455.510986
			CHANNELS 3 Zrotation Yrotation Xrotation
			JOINT joint_16
			{
				OFFSET -46.427490 7.144104 -496.360985
				CHANNELS 3 Zrotation Yrotation Xrotation
				JOINT joint_17
				{
					OFFSET 209.055420 -37.122803 -85.191002
					CHANNELS 3 Zrotation Yrotation Xrotation
					End Site
					{
						OFFSET 0.000000 0.000000 0.000000
					}
				}
			}
		}
	}
	JOINT joint_18
	{
		OFFSET 5.652832 94.642578 -116.244019
		CHANNELS 3 Zrotation Yrotation Xrotation
		JOINT joint_19
		{
			OFFSET -12.379883 -7.332642 -455.843994
			CHANNELS 3 Zrotation Yrotation Xrotation
			JOINT joint_20
			{
				OFFSET -45.227051 -8.172241 -496.457985
				CHANNELS 3 Zrotation Yrotation Xrotation
				JOINT joint_21
				{
					OFFSET 210.522949 -11.530396 -88.809004
					CHANNELS 3 Zrotation Yrotation Xrotation
					End Site
					{
						OFFSET 0.000000 0.000000 0.000000
					}
				}
			}
		}
	}
}
MOTION
Frames: 14
Frame Time: 0.016667
-2690.279053 1066.366211 1130.881958 -6.190444 9.611720 -3.915588 2.322371 -3.991079 -3.929766 1.185524 0.662403 0.951319 1.000859 -0.805310 -0.643105 0.290943 -2.172942 -0.188246 0.000000 0.000000 0.000000 0.441354 14.562112 0.225373 -7.290107 7.443539 -24.976265 178.141619 -57.701023 -171.337589 0.000000 0.000000 0.000000 4.373898 -7.503379 5.094111 9.119178 -0.876864 3.171865 171.970787 -66.451627 151.332351 0.000000 0.000000 0.000000 1.020898 5.021034 -2.172439 1.115089 1.939412 -0.998248 0.899424 -8.903417 -1.256142 0.000000 0.000000 0.000000 1.586450 -36.940464 9.052384 -4.022571 7.398753 2.013400 -4.233654 21.156461 -0.714761 0.000000 0.000000 0.000000 
-2684.975098 1066.999023 1131.433960 -5.326265 10.154893 -3.406082 2.421579 -4.047277 -5.206058 1.221279 0.682324 1.155856 0.959848 -0.838593 -0.800312 0.173106 -2.314879 0.161706 0.000000 0.000000 0.000000 0.334187 13.758862 0.308892 -7.545526 7.441952 -24.231206 177.848589 -58.206433 -170.247097 0.000000 0.000000 0.000000 4.313989 -8.103633 4.677129 8.338778 -1.785506 3.373796 171.480485 -67.918199 152.561592 0.000000 0.000000 0.000000 0.496057 4.084950 -2.363639 0.531715 3.392463 -1.129439 0.229783 -9.143322 -1.550268 0.000000 0.000000 0.000000 1.609367 -38.297264 8.957396 -4.020515 9.185431 0.527479 -4.473881 20.549415 -0.821951 0.000000 0.000000 0.000000 
-2679.138184 1067.859253 1132.619995 -4.214898 10.558617 -2.913325 2.395295 -3.911181 -6.176474 1.240682 0.654886 1.308584 0.934036 -0.834366 -0.929873 0.109935 -2.425083 0.347541 0.000000 0.000000 0.000000 0.216582 13.004839 0.353737 -7.913604 7.524617 -23.684242 177.451007 -58.550219 -168.938649 0.000000 0.000000 0.000000 4.278355 -8.540267 4.497290 7.475081 -2.455636 3.179041 170.893653 -69.579163 153.888230 0.000000 0.000000 0.000000 -0.025259 3.462794 -2.512026 -0.030402 4.579571 -1.252599 -0.411152 -9.005868 -1.764364 0.000000 0.000000 0.000000 1.342813 -39.003850 8.649783 -4.088637 10.166948 -0.408637 -4.680005 20.232461 -0.898275 0.000000 0.000000 0.000000 
-2671.833252 1069.565918 1134.198975 -2.747544 10.730394 -2.530275 2.164855 -3.595549 -6.541969 1.196770 0.594791 1.398875 0.889066 -0.754329 -1.007020 0.152042 -2.401339 0.232782 0.000000 0.000000 0.000000 0.124893 12.347036 0.326431 -8.482673 7.712279 -23.612217 176.861796 -58.610340 -167.191912 0.000000 0.000000 0.000000 4.291712 -8.608501 4.801810 6.481616 -2.624131 2.225421 170.215080 -71.388865 155.383464 0.000000 0.000000 0.000000 -0.573550 3.421708 -2.546588 -0.572537 5.302559 -1.318586 -0.993046 -8.411353 -1.872880 0.000000 0.000000 0.000000 0.649063 -38.647398 7.946041 -4.191629 9.789358 -0.313544 -4.731888 20.166884 -0.897798 0.000000 0.000000 0.000000 
-2663.994141 1071.500000 1136.413940 -1.008919 10.787671 -2.164043 1.846108 -3.166328 -6.615664 1.116681 0.506368 1.457729 0.828422 -0.628341 -1.058121 0.247489 -2.307935 -0.030791 0.000000 0.000000 0.000000 0.029496 11.728227 0.262380 -9.195545 7.960740 -23.743575 176.152011 -58.506439 -165.171245 0.000000 0.000000 0.000000 4.338294 -8.540859 5.347932 5.445376 -2.605829 0.878881 169.513394 -73.369489 156.934586 0.000000 0.000000 0.000000 -1.130913 3.670703 -2.533451 -1.104807 5.764678 -1.348568 -1.537276 -7.462554 -1.902312 0.000000 0.000000 0.000000 -0.303714 -37.680842 7.031318 -4.375185 8.598550 0.293812 -4.782836 20.329176 -0.883226 0.000000 0.000000 0.000000 
-2656.427490 1072.870850 1138.612061 0.633660 10.820193 -1.827569 1.612141 -2.826798 -6.675546 1.070463 0.440680 1.483885 0.795797 -0.544596 -1.088185 0.312364 -2.203037 -0.210345 0.000000 0.000000 0.000000 -0.088246 11.111777 0.232673 -9.895514 8.111846 -23.741796 175.481410 -58.348034 -163.474777 0.000000 0.000000 0.000000 4.318714 -8.724213 5.711861 4.657373 -2.808953 -0.144182 168.992264 -75.441982 158.148750 0.000000 0.000000 0.000000 -1.536242 4.110772 -2.511807 -1.480607 5.862751 -1.379904 -1.902346 -6.431320 -1.850134 0.000000 0.000000 0.000000 -1.213691 -36.694635 6.321874 -4.578879 7.351644 0.718778 -4.891839 20.593339 -0.888508 0.000000 0.000000 0.000000 
-2649.462891 1073.251831 1140.552979 2.114537 10.862611 -1.502611 1.521537 -2.687257 -6.851819 1.096988 0.443273 1.482376 0.820502 -0.549303 -1.097596 0.314515 -2.093159 -0.220878 0.000000 0.000000 0.000000 -0.265142 10.494484 0.312825 -10.475500 8.135434 -23.426015 174.940861 -58.192940 -162.389858 0.000000 0.000000 0.000000 4.149681 -9.322078 5.662337 4.214334 -3.423755 -0.513197 168.694689 -77.820146 158.900572 0.000000 0.000000 0.000000 -1.710889 4.803025 -2.480272 -1.615832 5.404563 -1.463648 -2.007158 -5.416857 -1.705538 0.000000 0.000000 0.000000 -2.019630 -35.929465 5.994306 -4.783792 6.341810 0.632618 -5.083766 20.917543 -0.926089 0.000000 0.000000 0.000000 
-2642.772217 1073.070679 1142.479004 3.511269 10.894472 -1.191274 1.494624 -2.651808 -7.061203 1.163188 0.478978 1.471735 0.881693 -0.595652 -1.092149 0.291650 -1.980419 -0.163712 0.000000 0.000000 0.000000 -0.465253 9.891126 0.469333 -10.992894 8.084903 -23.026826 174.453831 -58.002630 -161.709167 0.000000 0.000000 0.000000 3.902503 -10.138796 5.414466 3.953972 -4.224366 -0.587478 168.504787 -80.380406 159.354426 0.000000 0.000000 0.000000 -1.723998 5.677362 -2.420152 -1.584884 4.588437 -1.595828 -1.942229 -4.334204 -1.486919 0.000000 0.000000 0.000000 -2.795320 -35.167455 5.845635 -4.992371 5.287342 0.371627 -5.310518 21.334115 -0.973861 0.000000 0.000000 0.000000 
-2636.176270 1072.821167 1144.463989 4.739570 10.955085 -0.915146 1.456883 -2.657223 -7.268716 1.212922 0.515591 1.472921 0.927606 -0.634723 -1.088417 0.275837 -1.929881 -0.117602 0.000000 0.000000 0.000000 -0.575549 9.312811 0.611141 -11.510705 7.954071 -22.807976 173.944211 -57.727718 -161.339638 0.000000 0.000000 0.000000 3.702453 -11.001032 5.230074 3.765298 -4.937642 -0.689930 168.363883 -82.510547 159.599648 0.000000 0.000000 0.000000 -1.669083 6.419146 -2.365199 -1.505326 3.897772 -1.709884 -1.840508 -3.201450 -1.245940 0.000000 0.000000 0.000000 -3.493280 -34.362061 5.686442 -5.172288 4.117483 0.250517 -5.497935 21.777831 -1.008091 0.000000 0.000000 0.000000 
-2629.556885 1072.736572 1146.547974 5.771802 11.058871 -0.665494 1.377133 -2.676899 -7.450456 1.222650 0.534282 1.478294 0.937935 -0.645076 -1.092122 0.278990 -1.986457 -0.108028 0.000000 0.000000 0.000000 -0.519404 8.804141 0.696280 -12.042130 7.739477 -22.856416 173.383545 -57.275850 -161.408772 0.000000 0.000000 0.000000 3.605244 -11.904857 5.204774 3.612701 -5.457853 -0.943058 168.272876 -83.946860 159.679104 0.000000 0.000000 0.000000 -1.570489 6.925444 -2.378547 -1.414116 3.505857 -1.741606 -1.732959 -2.014710 -0.993055 0.000000 0.000000 0.000000 -4.099711 -33.450277 5.407974 -5.313750 2.737138 0.426213 -5.616071 22.251206 -1.018105 0.000000 0.000000 0.000000 
-2623.033691 1072.584717 1148.692993 6.624739 11.184390 -0.465988 1.286441 -2.719001 -7.597251 1.221002 0.543117 1.476798 0.939724 -0.650786 -1.098067 0.290668 -2.104564 -0.112005 0.000000 0.000000 0.000000 -0.369380 8.333257 0.756666 -12.533418 7.457936 -23.042842 172.826927 -56.757848 -161.847682 0.000000 0.000000 0.000000 3.545725 -12.858036 5.242701 3.549296 -5.877466 -1.199050 168.252550 -84.922202 159.538098 0.000000 0.000000 0.000000 -1.403751 7.314186 -2.402836 -1.268988 3.229556 -1.736248 -1.574074 -0.777392 -0.712443 0.000000 0.000000 0.000000 -4.626763 -32.475040 5.131861 -5.433029 1.230262 0.747287 -5.702147 22.767717 -1.016606 0.000000 0.000000 0.000000 
-2616.779053 1072.160889 1150.862061 7.300670 11.326531 -0.390174 1.202756 -2.785150 -7.675555 1.219431 0.546714 1.476730 0.940651 -0.656522 -1.107738 0.308498 -2.219688 -0.133873 0.000000 0.000000 0.000000 -0.231548 7.791839 0.802502 -12.973932 7.134361 -23.283453 172.313840 -56.399776 -162.229869 0.000000 0.000000 0.000000 3.467032 -13.709953 5.344772 3.626920 -6.230883 -1.363681 168.297482 -85.514493 159.113237 0.000000 0.000000 0.000000 -1.204217 7.592995 -2.306790 -1.085280 3.017680 -1.750662 -1.384108 0.472561 -0.418281 0.000000 0.000000 0.000000 -5.075124 -31.556125 5.016469 -5.545764 -0.201084 1.066254 -5.788482 23.264965 -1.019012 0.000000 0.000000 0.000000 
-2610.910156 1071.376099 1153.093018 7.785077 11.506044 -0.494415 1.120370 -2.892677 -7.655803 1.205739 0.552315 1.477683 0.927539 -0.665246 -1.117910 0.335854 -2.312460 -0.184649 0.000000 0.000000 0.000000 -0.131953 7.123449 0.837247 -13.366383 6.761204 -23.582557 171.851849 -56.188563 -162.459507 0.000000 0.000000 0.000000 3.334198 -14.407288 5.587052 3.952910 -6.505294 -1.378322 168.454347 -85.530561 158.225306 0.000000 0.000000 0.000000 -0.973842 7.702068 -2.023426 -0.858520 2.905503 -1.799460 -1.160386 1.728962 -0.110680 0.000000 0.000000 0.000000 -5.460147 -30.721463 5.149511 -5.673969 -1.553850 1.361512 -5.896565 23.744385 -1.035143 0.000000 0.000000 0.000000 
-2605.310547 1070.319458 1155.348999 8.104036 11.711403 -0.721743 1.041916 -3.031940 -7.565305 1.187997 0.555284 1.477547 0.909045 -0.675755 -1.131089 0.368363 -2.404239 -0.250345 0.000000 0.000000 0.000000 -0.048176 6.380734 0.859820 -13.707624 6.349697 -23.917991 171.435116 -56.135701 -162.618636 0.000000 0.000000 0.000000 3.180393 -15.010068 5.911178 4.445834 -6.725223 -1.309517 168.691716 -85.141509 157.024395 0.000000 0.000000 0.000000 -0.718738 7.689508 -1.629843 -0.600060 2.859881 -1.859663 -0.910019 2.998468 0.209151 0.000000 0.000000 0.000000 -5.777139 -29.950280 5.437205 -5.790363 -2.824937 1.659099 -5.994985 24.193478 -1.052473 0.000000 0.000000 0.000000 
